<svg xmlns="http://www.w3.org/2000/svg" viewBox="0 0 960 410" font-family="Inter, system-ui, -apple-system, sans-serif">
  <defs>
    <style>
      .stroke { stroke: #222222; stroke-width: 1.4; fill: none; }
      .stroke-thin { stroke: #222222; stroke-width: 1; fill: none; }
      .text { fill: #222222; font-size: 13px; }
      .text-strong { fill: #222222; font-size: 16px; font-weight: 600; }
      .text-xs { fill: #666666; font-size: 11px; }
      .bg-soft { fill: #F4F2FF; }
      .bg-block { fill: #FFFFFF; }
      .step-num { font-family: 'JetBrains Mono', monospace; font-size: 13px; font-weight: 700; fill: #7F77DD; }
      .text-mono { font-family: 'JetBrains Mono', monospace; font-size: 11px; fill: #222222; }
      .arrow-fill { fill: #222222; }
    </style>
    <marker id="arrow-rlhf" viewBox="0 0 10 10" refX="8" refY="5" markerWidth="9" markerHeight="9" orient="auto">
      <path d="M 0 0 L 10 5 L 0 10 z" class="arrow-fill"/>
    </marker>
  </defs>

  <text x="480" y="36" text-anchor="middle" class="text-strong" font-size="22">RLHF: el camino largo en tres pasos</text>
  <text x="480" y="58" text-anchor="middle" class="text-xs">Reinforcement Learning from Human Feedback. Necesita entrenar una segunda red — el "reward model".</text>

  <!-- Step 1: Comparisons -->
  <g transform="translate(40,100)">
    <rect x="0" y="0" width="260" height="220" rx="10" class="stroke bg-soft"/>
    <text x="14" y="28" class="step-num">Paso 1</text>
    <text x="14" y="50" class="text" font-weight="600">Recolectar comparaciones</text>

    <!-- mini illustration: 3 candidates with one ticked -->
    <g transform="translate(20,70)">
      <rect x="0" y="0" width="64" height="38" rx="4" class="stroke bg-block"/>
      <text x="32" y="22" text-anchor="middle" class="text-xs">A</text>

      <rect x="76" y="0" width="64" height="38" rx="4" stroke="#1D9E75" stroke-width="2" fill="#F0FBF6"/>
      <text x="108" y="22" text-anchor="middle" class="text-xs" fill="#1D9E75" font-weight="700">B ★</text>

      <rect x="152" y="0" width="64" height="38" rx="4" class="stroke bg-block"/>
      <text x="184" y="22" text-anchor="middle" class="text-xs">C</text>
    </g>

    <text x="14" y="146" class="text-xs">Humanos rankean respuestas</text>
    <text x="14" y="162" class="text-xs">para miles de prompts.</text>

    <text x="14" y="194" class="text-xs" fill="#666">Output: dataset de pares</text>
    <text x="14" y="208" class="text-mono" fill="#7F77DD">(prompt, ganador, perdedor)</text>
  </g>

  <line x1="308" y1="210" x2="332" y2="210" class="stroke" marker-end="url(#arrow-rlhf)"/>

  <!-- Step 2: Reward model -->
  <g transform="translate(340,100)">
    <rect x="0" y="0" width="260" height="220" rx="10" class="stroke bg-soft"/>
    <text x="14" y="28" class="step-num">Paso 2</text>
    <text x="14" y="50" class="text" font-weight="600">Entrenar el reward model</text>

    <!-- network icon -->
    <g transform="translate(70,70)">
      <rect x="0" y="0" width="120" height="60" rx="6" class="stroke bg-block"/>
      <g fill="#7F77DD">
        <circle cx="20" cy="20" r="3"/><circle cx="20" cy="40" r="3"/>
        <circle cx="60" cy="14" r="3"/><circle cx="60" cy="30" r="3"/><circle cx="60" cy="46" r="3"/>
        <circle cx="100" cy="30" r="3"/>
      </g>
      <g class="stroke-thin" opacity="0.4">
        <line x1="23" y1="20" x2="57" y2="14"/><line x1="23" y1="20" x2="57" y2="30"/>
        <line x1="23" y1="40" x2="57" y2="30"/><line x1="23" y1="40" x2="57" y2="46"/>
        <line x1="63" y1="14" x2="97" y2="30"/><line x1="63" y1="30" x2="97" y2="30"/><line x1="63" y1="46" x2="97" y2="30"/>
      </g>
    </g>
    <text x="130" y="148" text-anchor="middle" class="text-xs" font-weight="600" fill="#7F77DD">reward model</text>

    <text x="14" y="176" class="text-xs">Una <tspan font-weight="600">segunda red</tspan> que aprende</text>
    <text x="14" y="190" class="text-xs">a puntuar respuestas como</text>
    <text x="14" y="204" class="text-xs">lo haría un humano.</text>
  </g>

  <line x1="608" y1="210" x2="632" y2="210" class="stroke" marker-end="url(#arrow-rlhf)"/>

  <!-- Step 3: PPO -->
  <g transform="translate(640,100)">
    <rect x="0" y="0" width="280" height="220" rx="10" class="stroke bg-soft"/>
    <text x="14" y="28" class="step-num">Paso 3</text>
    <text x="14" y="50" class="text" font-weight="600">Optimizar el LLM con PPO</text>

    <g transform="translate(20,70)">
      <text class="text-mono" y="0" fill="#222">LLM genera respuesta</text>
      <text class="text-mono" y="16" fill="#666">           ↓</text>
      <text class="text-mono" y="32" fill="#7F77DD">reward model puntúa</text>
      <text class="text-mono" y="48" fill="#666">           ↓</text>
      <text class="text-mono" y="64" fill="#222">LLM se actualiza</text>
      <text class="text-mono" y="80" fill="#666">      (loop)</text>
    </g>

    <!-- PPO definition box -->
    <g transform="translate(14,138)">
      <rect x="0" y="0" width="252" height="42" rx="6" stroke="#7F77DD" stroke-width="1" fill="#FFFFFF"/>
      <text x="8" y="16" class="text-xs" font-weight="700" fill="#7F77DD">PPO — Proximal Policy Optimization</text>
      <text x="8" y="32" class="text-xs" fill="#666">algoritmo de RL clásico (OpenAI, 2017)</text>
    </g>
  </g>

  <!-- bottom -->
  <text x="480" y="380" text-anchor="middle" class="text-xs" fill="#222">Es lo que usó OpenAI para alinear ChatGPT (InstructGPT, 2022).</text>
  <text x="480" y="402" text-anchor="middle" class="text-xs" fill="#D14B4B" font-weight="600">⚠ Es complejo: dos redes, hyperparams sensibles, fácil de romper.</text>
</svg>
