<svg xmlns="http://www.w3.org/2000/svg" viewBox="0 0 960 500" font-family="Inter, system-ui, -apple-system, sans-serif">
  <defs>
    <style>
      .stroke { stroke: #222222; stroke-width: 1.4; fill: none; }
      .stroke-thin { stroke: #222222; stroke-width: 1; fill: none; }
      .axis { stroke: #444; stroke-width: 1.2; fill: none; }
      .grid { stroke: #DDD; stroke-width: 0.8; fill: none; }
      .text { fill: #222222; font-size: 13px; }
      .text-strong { fill: #222222; font-size: 16px; font-weight: 600; }
      .text-xs { fill: #666666; font-size: 11px; }
      .badge-historic { fill: #E0A45C; }
    </style>
  </defs>

  <text x="480" y="36" text-anchor="middle" class="text-strong" font-size="22">La era Chinchilla (2022): "más N, más D, mejor modelo"</text>

  <!-- "histórico" badge -->
  <g transform="translate(380,52)">
    <rect x="0" y="0" width="200" height="22" rx="11" class="badge-historic"/>
    <text x="100" y="15" text-anchor="middle" font-size="11" font-weight="700" fill="#FFFFFF">así se pensaba hasta ~2024</text>
  </g>

  <!-- Plot area -->
  <g transform="translate(110,110)">
    <line x1="0" y1="0" x2="0" y2="240" class="axis"/>
    <line x1="0" y1="240" x2="540" y2="240" class="axis"/>

    <g class="grid">
      <line x1="0" y1="40" x2="540" y2="40"/>
      <line x1="0" y1="100" x2="540" y2="100"/>
      <line x1="0" y1="160" x2="540" y2="160"/>
      <line x1="0" y1="200" x2="540" y2="200"/>
      <line x1="100" y1="0" x2="100" y2="240"/>
      <line x1="220" y1="0" x2="220" y2="240"/>
      <line x1="340" y1="0" x2="340" y2="240"/>
      <line x1="460" y1="0" x2="460" y2="240"/>
    </g>

    <text x="-10" y="0" text-anchor="end" class="text-xs">5.0</text>
    <text x="-10" y="40" text-anchor="end" class="text-xs">4.0</text>
    <text x="-10" y="100" text-anchor="end" class="text-xs">3.0</text>
    <text x="-10" y="160" text-anchor="end" class="text-xs">2.5</text>
    <text x="-10" y="200" text-anchor="end" class="text-xs">2.2</text>
    <text x="-10" y="240" text-anchor="end" class="text-xs">2.0</text>

    <text x="0" y="258" text-anchor="middle" class="text-xs">100M</text>
    <text x="100" y="258" text-anchor="middle" class="text-xs">1B</text>
    <text x="220" y="258" text-anchor="middle" class="text-xs">10B</text>
    <text x="340" y="258" text-anchor="middle" class="text-xs">100B</text>
    <text x="460" y="258" text-anchor="middle" class="text-xs">1T</text>

    <text transform="translate(-50,120) rotate(-90)" text-anchor="middle" class="text-xs" font-weight="600">test loss (menor = mejor)</text>
    <text x="270" y="290" text-anchor="middle" class="text-xs" font-weight="600">parámetros del modelo (N)</text>

    <g fill="none" stroke-width="1.8">
      <path d="M0 30 Q 100 50 220 80 T 460 130" stroke="#C7B7F2" opacity="0.9"/>
      <path d="M0 60 Q 100 80 220 110 T 460 160" stroke="#9E8FE5" opacity="0.9"/>
      <path d="M0 90 Q 100 110 220 140 T 460 190" stroke="#7F77DD" opacity="1"/>
      <path d="M0 120 Q 100 140 220 170 T 460 215" stroke="#5949C9" opacity="1"/>
    </g>

    <g transform="translate(380,8)">
      <text x="0" y="0" class="text-xs" font-weight="600">Compute (FLOPs)</text>
      <g transform="translate(0,16)">
        <line x1="0" y1="0" x2="20" y2="0" stroke="#C7B7F2" stroke-width="2"/>
        <text x="26" y="4" class="text-xs">poco</text>
      </g>
      <g transform="translate(0,32)">
        <line x1="0" y1="0" x2="20" y2="0" stroke="#9E8FE5" stroke-width="2"/>
      </g>
      <g transform="translate(0,48)">
        <line x1="0" y1="0" x2="20" y2="0" stroke="#7F77DD" stroke-width="2"/>
      </g>
      <g transform="translate(0,64)">
        <line x1="0" y1="0" x2="20" y2="0" stroke="#5949C9" stroke-width="2"/>
        <text x="26" y="4" class="text-xs">mucho</text>
      </g>
    </g>
  </g>

  <!-- Chinchilla optimal rule + table (right of plot) -->
  <g transform="translate(680,140)">
    <rect x="0" y="0" width="240" height="36" rx="6" fill="#F4F2FF" stroke="#7F77DD" stroke-width="1.4"/>
    <text x="120" y="16" text-anchor="middle" class="text-xs" font-weight="700" fill="#7F77DD">Chinchilla optimal</text>
    <text x="120" y="30" text-anchor="middle" class="text-xs" fill="#222">~20 tokens por parámetro</text>

    <!-- Table -->
    <g transform="translate(0,56)" font-family="'JetBrains Mono', monospace" font-size="10.5">
      <!-- header -->
      <rect x="0" y="0" width="240" height="20" fill="#222"/>
      <text x="8"   y="14" fill="#FFF" font-weight="700">Modelo</text>
      <text x="100" y="14" fill="#FFF" font-weight="700">N</text>
      <text x="148" y="14" fill="#FFF" font-weight="700">D</text>
      <text x="200" y="14" fill="#FFF" font-weight="700">D/N</text>

      <!-- row Gopher -->
      <rect x="0" y="20" width="240" height="22" fill="#FFFFFF" stroke="#DDD" stroke-width="0.8"/>
      <text x="8"   y="35" fill="#222">Gopher</text>
      <text x="100" y="35" fill="#222">280B</text>
      <text x="148" y="35" fill="#222">300B</text>
      <text x="200" y="35" fill="#666">~1×</text>

      <!-- row GPT-3 -->
      <rect x="0" y="42" width="240" height="22" fill="#FFFFFF" stroke="#DDD" stroke-width="0.8"/>
      <text x="8"   y="57" fill="#222">GPT-3</text>
      <text x="100" y="57" fill="#222">175B</text>
      <text x="148" y="57" fill="#222">300B</text>
      <text x="200" y="57" fill="#666">~2×</text>

      <!-- row Chinchilla (highlighted) -->
      <rect x="0" y="64" width="240" height="22" fill="#F4F2FF" stroke="#7F77DD" stroke-width="1.4"/>
      <text x="8"   y="79" fill="#7F77DD" font-weight="700">Chinchilla</text>
      <text x="100" y="79" fill="#7F77DD" font-weight="700">70B</text>
      <text x="148" y="79" fill="#7F77DD" font-weight="700">1.4T</text>
      <text x="200" y="79" fill="#7F77DD" font-weight="700">20× ★</text>
    </g>

    <text x="120" y="160" text-anchor="middle" font-size="10" fill="#666" font-style="italic">Mismo cómputo, modelo más chico</text>
    <text x="120" y="174" text-anchor="middle" font-size="10" fill="#666" font-style="italic">+ más datos = mejor.</text>
  </g>

  <g transform="translate(110,440)">
    <text x="270" y="0" text-anchor="middle" class="text" font-weight="600" fill="#7F77DD">Más parámetros (N) + más datos (D) → menor loss → mejor modelo, sin techo a la vista.</text>
    <text x="270" y="22" text-anchor="middle" class="text-xs" fill="#D14B4B" font-weight="600">⚠ Pero esto cambió en 2025-2026. Próximo slide: qué pasó.</text>
  </g>
</svg>
